<mxfile host="65bd71144e">
    <diagram id="C5RBs43oDa-KdzZeNtuy" name="Page-1">
        <mxGraphModel dx="1010" dy="2383" grid="1" gridSize="10" guides="1" tooltips="1" connect="1" arrows="1" fold="1" page="1" pageScale="1" pageWidth="2336" pageHeight="1654" math="0" shadow="0">
            <root>
                <mxCell id="WIyWlLk6GJQsqaUBKTNV-0"/>
                <mxCell id="WIyWlLk6GJQsqaUBKTNV-1" parent="WIyWlLk6GJQsqaUBKTNV-0"/>
                <mxCell id="rGAcFq7chmI2JZtGDuDB-11" style="rounded=1;orthogonalLoop=1;jettySize=auto;html=1;entryX=0;entryY=0.5;entryDx=0;entryDy=0;exitX=1;exitY=0.5;exitDx=0;exitDy=0;" parent="WIyWlLk6GJQsqaUBKTNV-1" source="rGAcFq7chmI2JZtGDuDB-4" target="rGAcFq7chmI2JZtGDuDB-7" edge="1">
                    <mxGeometry relative="1" as="geometry"/>
                </mxCell>
                <mxCell id="rGAcFq7chmI2JZtGDuDB-12" style="edgeStyle=orthogonalEdgeStyle;rounded=1;orthogonalLoop=1;jettySize=auto;html=1;" parent="WIyWlLk6GJQsqaUBKTNV-1" source="rGAcFq7chmI2JZtGDuDB-4" target="rGAcFq7chmI2JZtGDuDB-8" edge="1">
                    <mxGeometry relative="1" as="geometry"/>
                </mxCell>
                <mxCell id="rGAcFq7chmI2JZtGDuDB-13" style="rounded=1;orthogonalLoop=1;jettySize=auto;html=1;exitX=1;exitY=0.5;exitDx=0;exitDy=0;entryX=0;entryY=0.5;entryDx=0;entryDy=0;" parent="WIyWlLk6GJQsqaUBKTNV-1" source="rGAcFq7chmI2JZtGDuDB-4" target="rGAcFq7chmI2JZtGDuDB-9" edge="1">
                    <mxGeometry relative="1" as="geometry"/>
                </mxCell>
                <mxCell id="rGAcFq7chmI2JZtGDuDB-4" value="reachability of the location" style="rounded=1;whiteSpace=wrap;html=1;" parent="WIyWlLk6GJQsqaUBKTNV-1" vertex="1">
                    <mxGeometry x="1155" y="1170" width="120" height="60" as="geometry"/>
                </mxCell>
                <mxCell id="rGAcFq7chmI2JZtGDuDB-5" value="material qualities needed for the shelter&amp;nbsp;" style="shape=parallelogram;perimeter=parallelogramPerimeter;whiteSpace=wrap;html=1;fixedSize=1;spacing=1;spacingLeft=15;spacingRight=15;fontSize=11;rounded=1;" parent="WIyWlLk6GJQsqaUBKTNV-1" vertex="1">
                    <mxGeometry x="1515" y="-1259" width="120" height="60" as="geometry"/>
                </mxCell>
                <mxCell id="rGAcFq7chmI2JZtGDuDB-7" value="easy: trucks possible" style="shape=parallelogram;perimeter=parallelogramPerimeter;whiteSpace=wrap;html=1;fixedSize=1;rounded=1;" parent="WIyWlLk6GJQsqaUBKTNV-1" vertex="1">
                    <mxGeometry x="1335" y="1130" width="120" height="30" as="geometry"/>
                </mxCell>
                <mxCell id="rGAcFq7chmI2JZtGDuDB-8" value="medium: cars possible" style="shape=parallelogram;perimeter=parallelogramPerimeter;whiteSpace=wrap;html=1;fixedSize=1;rounded=1;" parent="WIyWlLk6GJQsqaUBKTNV-1" vertex="1">
                    <mxGeometry x="1325" y="1185" width="120" height="30" as="geometry"/>
                </mxCell>
                <mxCell id="rGAcFq7chmI2JZtGDuDB-9" value="hard: only reachable by foot" style="shape=parallelogram;perimeter=parallelogramPerimeter;whiteSpace=wrap;html=1;fixedSize=1;rounded=1;" parent="WIyWlLk6GJQsqaUBKTNV-1" vertex="1">
                    <mxGeometry x="1315" y="1240" width="120" height="30" as="geometry"/>
                </mxCell>
                <mxCell id="rGAcFq7chmI2JZtGDuDB-58" style="edgeStyle=orthogonalEdgeStyle;rounded=1;orthogonalLoop=1;jettySize=auto;html=1;entryX=0;entryY=0.5;entryDx=0;entryDy=0;" parent="WIyWlLk6GJQsqaUBKTNV-1" source="rGAcFq7chmI2JZtGDuDB-17" target="rGAcFq7chmI2JZtGDuDB-28" edge="1">
                    <mxGeometry relative="1" as="geometry">
                        <Array as="points">
                            <mxPoint x="450" y="690"/>
                        </Array>
                    </mxGeometry>
                </mxCell>
                <mxCell id="rGAcFq7chmI2JZtGDuDB-17" value="open street network" style="shape=cylinder3;whiteSpace=wrap;html=1;boundedLbl=1;backgroundOutline=1;size=15;rounded=1;" parent="WIyWlLk6GJQsqaUBKTNV-1" vertex="1">
                    <mxGeometry x="420" y="560" width="60" height="80" as="geometry"/>
                </mxCell>
                <mxCell id="rGAcFq7chmI2JZtGDuDB-18" value="natural features" style="shape=cylinder3;whiteSpace=wrap;html=1;boundedLbl=1;backgroundOutline=1;size=15;rounded=1;" parent="WIyWlLk6GJQsqaUBKTNV-1" vertex="1">
                    <mxGeometry x="490" y="560" width="60" height="80" as="geometry"/>
                </mxCell>
                <mxCell id="rGAcFq7chmI2JZtGDuDB-53" style="edgeStyle=orthogonalEdgeStyle;rounded=1;orthogonalLoop=1;jettySize=auto;html=1;entryX=0;entryY=0.5;entryDx=0;entryDy=0;" parent="WIyWlLk6GJQsqaUBKTNV-1" source="rGAcFq7chmI2JZtGDuDB-19" target="rGAcFq7chmI2JZtGDuDB-22" edge="1">
                    <mxGeometry relative="1" as="geometry"/>
                </mxCell>
                <mxCell id="rGAcFq7chmI2JZtGDuDB-55" style="edgeStyle=orthogonalEdgeStyle;rounded=1;orthogonalLoop=1;jettySize=auto;html=1;entryX=0;entryY=0.5;entryDx=0;entryDy=0;" parent="WIyWlLk6GJQsqaUBKTNV-1" source="rGAcFq7chmI2JZtGDuDB-19" target="rGAcFq7chmI2JZtGDuDB-54" edge="1">
                    <mxGeometry relative="1" as="geometry"/>
                </mxCell>
                <mxCell id="rGAcFq7chmI2JZtGDuDB-19" value="building footprints&amp;nbsp;&lt;br&gt;" style="shape=cylinder3;whiteSpace=wrap;html=1;boundedLbl=1;backgroundOutline=1;size=15;rounded=1;" parent="WIyWlLk6GJQsqaUBKTNV-1" vertex="1">
                    <mxGeometry x="560" y="560" width="60" height="80" as="geometry"/>
                </mxCell>
                <mxCell id="rGAcFq7chmI2JZtGDuDB-20" value="Open Street maps" style="text;html=1;strokeColor=none;fillColor=none;align=center;verticalAlign=middle;whiteSpace=wrap;rounded=1;" parent="WIyWlLk6GJQsqaUBKTNV-1" vertex="1">
                    <mxGeometry x="450" y="524" width="140" height="30" as="geometry"/>
                </mxCell>
                <mxCell id="rGAcFq7chmI2JZtGDuDB-21" value="do we have information on building height?" style="text;html=1;strokeColor=none;fillColor=none;align=center;verticalAlign=middle;whiteSpace=wrap;rounded=1;fontSize=8;" parent="WIyWlLk6GJQsqaUBKTNV-1" vertex="1">
                    <mxGeometry x="560" y="650" width="70" height="20" as="geometry"/>
                </mxCell>
                <mxCell id="rGAcFq7chmI2JZtGDuDB-29" style="rounded=1;orthogonalLoop=1;jettySize=auto;html=1;exitX=1;exitY=0.5;exitDx=0;exitDy=0;entryX=0;entryY=0.5;entryDx=0;entryDy=0;" parent="WIyWlLk6GJQsqaUBKTNV-1" source="rGAcFq7chmI2JZtGDuDB-22" target="rGAcFq7chmI2JZtGDuDB-27" edge="1">
                    <mxGeometry relative="1" as="geometry">
                        <mxPoint x="975" y="530" as="targetPoint"/>
                    </mxGeometry>
                </mxCell>
                <mxCell id="rGAcFq7chmI2JZtGDuDB-22" value="density of buildings" style="rounded=1;whiteSpace=wrap;html=1;" parent="WIyWlLk6GJQsqaUBKTNV-1" vertex="1">
                    <mxGeometry x="790" y="480" width="120" height="60" as="geometry"/>
                </mxCell>
                <mxCell id="rGAcFq7chmI2JZtGDuDB-27" value="estimated &lt;br&gt;residences" style="shape=parallelogram;perimeter=parallelogramPerimeter;whiteSpace=wrap;html=1;fixedSize=1;rounded=1;" parent="WIyWlLk6GJQsqaUBKTNV-1" vertex="1">
                    <mxGeometry x="1045" y="510" width="120" height="60" as="geometry"/>
                </mxCell>
                <mxCell id="rGAcFq7chmI2JZtGDuDB-28" value="availability of shelter locations" style="shape=parallelogram;perimeter=parallelogramPerimeter;whiteSpace=wrap;html=1;fixedSize=1;rounded=1;" parent="WIyWlLk6GJQsqaUBKTNV-1" vertex="1">
                    <mxGeometry x="865" y="750" width="120" height="60" as="geometry"/>
                </mxCell>
                <mxCell id="aEGkrqKBKEE6HLABcekG-55" style="edgeStyle=orthogonalEdgeStyle;rounded=1;orthogonalLoop=1;jettySize=auto;html=1;entryX=0.5;entryY=1;entryDx=0;entryDy=0;" parent="WIyWlLk6GJQsqaUBKTNV-1" source="rGAcFq7chmI2JZtGDuDB-30" target="rGAcFq7chmI2JZtGDuDB-38" edge="1">
                    <mxGeometry relative="1" as="geometry"/>
                </mxCell>
                <mxCell id="rGAcFq7chmI2JZtGDuDB-30" value="shelter options scattered (&amp;lt;...m2)" style="shape=parallelogram;perimeter=parallelogramPerimeter;whiteSpace=wrap;html=1;fixedSize=1;rounded=1;" parent="WIyWlLk6GJQsqaUBKTNV-1" vertex="1">
                    <mxGeometry x="1035" y="860" width="120" height="60" as="geometry"/>
                </mxCell>
                <mxCell id="aEGkrqKBKEE6HLABcekG-53" style="edgeStyle=orthogonalEdgeStyle;rounded=1;orthogonalLoop=1;jettySize=auto;html=1;entryX=0.5;entryY=1;entryDx=0;entryDy=0;" parent="WIyWlLk6GJQsqaUBKTNV-1" source="rGAcFq7chmI2JZtGDuDB-31" target="rGAcFq7chmI2JZtGDuDB-37" edge="1">
                    <mxGeometry relative="1" as="geometry"/>
                </mxCell>
                <mxCell id="rGAcFq7chmI2JZtGDuDB-31" value="small area: &lt;br&gt;area for&amp;nbsp; ... shelters" style="shape=parallelogram;perimeter=parallelogramPerimeter;whiteSpace=wrap;html=1;fixedSize=1;rounded=1;" parent="WIyWlLk6GJQsqaUBKTNV-1" vertex="1">
                    <mxGeometry x="1045" y="760" width="120" height="60" as="geometry"/>
                </mxCell>
                <mxCell id="aEGkrqKBKEE6HLABcekG-52" style="edgeStyle=orthogonalEdgeStyle;rounded=1;orthogonalLoop=1;jettySize=auto;html=1;" parent="WIyWlLk6GJQsqaUBKTNV-1" source="rGAcFq7chmI2JZtGDuDB-32" target="rGAcFq7chmI2JZtGDuDB-60" edge="1">
                    <mxGeometry relative="1" as="geometry">
                        <Array as="points">
                            <mxPoint x="1220" y="710"/>
                            <mxPoint x="1220" y="620"/>
                        </Array>
                    </mxGeometry>
                </mxCell>
                <mxCell id="rGAcFq7chmI2JZtGDuDB-32" value="Big area: &lt;br&gt;area for &amp;gt; 50 shelters&amp;nbsp;" style="shape=parallelogram;perimeter=parallelogramPerimeter;whiteSpace=wrap;html=1;fixedSize=1;rounded=1;" parent="WIyWlLk6GJQsqaUBKTNV-1" vertex="1">
                    <mxGeometry x="1045" y="680" width="120" height="60" as="geometry"/>
                </mxCell>
                <mxCell id="rGAcFq7chmI2JZtGDuDB-33" value="" style="endArrow=classic;html=1;rounded=1;exitX=1;exitY=0.5;exitDx=0;exitDy=0;entryX=0;entryY=0.25;entryDx=0;entryDy=0;" parent="WIyWlLk6GJQsqaUBKTNV-1" source="rGAcFq7chmI2JZtGDuDB-28" target="rGAcFq7chmI2JZtGDuDB-30" edge="1">
                    <mxGeometry width="50" height="50" relative="1" as="geometry">
                        <mxPoint x="960" y="670" as="sourcePoint"/>
                        <mxPoint x="1010" y="620" as="targetPoint"/>
                    </mxGeometry>
                </mxCell>
                <mxCell id="rGAcFq7chmI2JZtGDuDB-34" value="" style="endArrow=classic;html=1;rounded=1;entryX=0;entryY=0.75;entryDx=0;entryDy=0;exitX=1;exitY=0.5;exitDx=0;exitDy=0;" parent="WIyWlLk6GJQsqaUBKTNV-1" source="rGAcFq7chmI2JZtGDuDB-28" target="rGAcFq7chmI2JZtGDuDB-31" edge="1">
                    <mxGeometry width="50" height="50" relative="1" as="geometry">
                        <mxPoint x="980" y="660" as="sourcePoint"/>
                        <mxPoint x="1054" y="618" as="targetPoint"/>
                    </mxGeometry>
                </mxCell>
                <mxCell id="rGAcFq7chmI2JZtGDuDB-35" value="" style="endArrow=classic;html=1;rounded=1;entryX=0;entryY=0.5;entryDx=0;entryDy=0;exitX=1;exitY=0.5;exitDx=0;exitDy=0;" parent="WIyWlLk6GJQsqaUBKTNV-1" source="rGAcFq7chmI2JZtGDuDB-28" target="rGAcFq7chmI2JZtGDuDB-32" edge="1">
                    <mxGeometry width="50" height="50" relative="1" as="geometry">
                        <mxPoint x="980" y="650" as="sourcePoint"/>
                        <mxPoint x="1064" y="628" as="targetPoint"/>
                    </mxGeometry>
                </mxCell>
                <mxCell id="rGAcFq7chmI2JZtGDuDB-47" style="edgeStyle=orthogonalEdgeStyle;rounded=1;orthogonalLoop=1;jettySize=auto;html=1;entryX=0;entryY=0.5;entryDx=0;entryDy=0;" parent="WIyWlLk6GJQsqaUBKTNV-1" source="rGAcFq7chmI2JZtGDuDB-37" target="rGAcFq7chmI2JZtGDuDB-38" edge="1">
                    <mxGeometry relative="1" as="geometry"/>
                </mxCell>
                <mxCell id="rGAcFq7chmI2JZtGDuDB-37" value="if the travel to a big area takes longe than ... hr; choose small area" style="rounded=1;whiteSpace=wrap;html=1;" parent="WIyWlLk6GJQsqaUBKTNV-1" vertex="1">
                    <mxGeometry x="1498" y="590" width="120" height="60" as="geometry"/>
                </mxCell>
                <mxCell id="aEGkrqKBKEE6HLABcekG-57" style="edgeStyle=orthogonalEdgeStyle;rounded=1;orthogonalLoop=1;jettySize=auto;html=1;" parent="WIyWlLk6GJQsqaUBKTNV-1" source="rGAcFq7chmI2JZtGDuDB-38" target="aEGkrqKBKEE6HLABcekG-56" edge="1">
                    <mxGeometry relative="1" as="geometry">
                        <Array as="points">
                            <mxPoint x="1890" y="620"/>
                            <mxPoint x="1890" y="1080"/>
                            <mxPoint x="530" y="1080"/>
                            <mxPoint x="530" y="1185"/>
                        </Array>
                    </mxGeometry>
                </mxCell>
                <mxCell id="rGAcFq7chmI2JZtGDuDB-38" value="if the travel to a small area takes longe than ... hr; choose scattered shelter option" style="rounded=1;whiteSpace=wrap;html=1;" parent="WIyWlLk6GJQsqaUBKTNV-1" vertex="1">
                    <mxGeometry x="1677" y="580" width="120" height="80" as="geometry"/>
                </mxCell>
                <mxCell id="aEGkrqKBKEE6HLABcekG-13" style="edgeStyle=orthogonalEdgeStyle;rounded=1;orthogonalLoop=1;jettySize=auto;html=1;entryX=0;entryY=0.5;entryDx=0;entryDy=0;" parent="WIyWlLk6GJQsqaUBKTNV-1" source="rGAcFq7chmI2JZtGDuDB-41" target="F6FDtYqWP2EwDNqiijw_-52" edge="1">
                    <mxGeometry relative="1" as="geometry">
                        <Array as="points">
                            <mxPoint x="830" y="-1138"/>
                            <mxPoint x="830" y="-1179"/>
                        </Array>
                    </mxGeometry>
                </mxCell>
                <mxCell id="rGAcFq7chmI2JZtGDuDB-41" value="soil type&lt;br&gt;(slope)" style="shape=parallelogram;perimeter=parallelogramPerimeter;whiteSpace=wrap;html=1;fixedSize=1;rounded=1;" parent="WIyWlLk6GJQsqaUBKTNV-1" vertex="1">
                    <mxGeometry x="630" y="-1169" width="120" height="62" as="geometry"/>
                </mxCell>
                <mxCell id="rGAcFq7chmI2JZtGDuDB-54" value="height of buildings" style="rounded=1;whiteSpace=wrap;html=1;" parent="WIyWlLk6GJQsqaUBKTNV-1" vertex="1">
                    <mxGeometry x="790" y="550" width="120" height="60" as="geometry"/>
                </mxCell>
                <mxCell id="rGAcFq7chmI2JZtGDuDB-56" style="rounded=1;orthogonalLoop=1;jettySize=auto;html=1;exitX=1;exitY=0.5;exitDx=0;exitDy=0;entryX=0;entryY=0.5;entryDx=0;entryDy=0;" parent="WIyWlLk6GJQsqaUBKTNV-1" source="rGAcFq7chmI2JZtGDuDB-54" target="rGAcFq7chmI2JZtGDuDB-27" edge="1">
                    <mxGeometry relative="1" as="geometry">
                        <mxPoint x="920" y="520" as="sourcePoint"/>
                        <mxPoint x="1005" y="550" as="targetPoint"/>
                    </mxGeometry>
                </mxCell>
                <mxCell id="rGAcFq7chmI2JZtGDuDB-59" value="" style="endArrow=classic;html=1;rounded=1;entryX=0;entryY=0.5;entryDx=0;entryDy=0;edgeStyle=orthogonalEdgeStyle;" parent="WIyWlLk6GJQsqaUBKTNV-1" source="rGAcFq7chmI2JZtGDuDB-27" target="rGAcFq7chmI2JZtGDuDB-60" edge="1">
                    <mxGeometry width="50" height="50" relative="1" as="geometry">
                        <mxPoint x="1360" y="550" as="sourcePoint"/>
                        <mxPoint x="1249.230769230769" y="470" as="targetPoint"/>
                        <Array as="points">
                            <mxPoint x="1220" y="540"/>
                            <mxPoint x="1220" y="620"/>
                        </Array>
                    </mxGeometry>
                </mxCell>
                <mxCell id="rGAcFq7chmI2JZtGDuDB-66" style="edgeStyle=orthogonalEdgeStyle;rounded=1;orthogonalLoop=1;jettySize=auto;html=1;entryX=0;entryY=0.5;entryDx=0;entryDy=0;" parent="WIyWlLk6GJQsqaUBKTNV-1" source="rGAcFq7chmI2JZtGDuDB-60" target="rGAcFq7chmI2JZtGDuDB-37" edge="1">
                    <mxGeometry relative="1" as="geometry"/>
                </mxCell>
                <mxCell id="rGAcFq7chmI2JZtGDuDB-60" value="for each estimated residence, find nearest big area" style="rounded=1;whiteSpace=wrap;html=1;" parent="WIyWlLk6GJQsqaUBKTNV-1" vertex="1">
                    <mxGeometry x="1260" y="590" width="120" height="60" as="geometry"/>
                </mxCell>
                <mxCell id="rGAcFq7chmI2JZtGDuDB-61" value="if big area reaches its capacity, search for second nearest big area" style="rounded=1;whiteSpace=wrap;html=1;" parent="WIyWlLk6GJQsqaUBKTNV-1" vertex="1">
                    <mxGeometry x="1340" y="670" width="120" height="60" as="geometry"/>
                </mxCell>
                <mxCell id="rGAcFq7chmI2JZtGDuDB-63" value="" style="endArrow=classic;html=1;rounded=1;exitX=1;exitY=0.5;exitDx=0;exitDy=0;edgeStyle=orthogonalEdgeStyle;" parent="WIyWlLk6GJQsqaUBKTNV-1" source="rGAcFq7chmI2JZtGDuDB-60" edge="1">
                    <mxGeometry width="50" height="50" relative="1" as="geometry">
                        <mxPoint x="1380" y="780" as="sourcePoint"/>
                        <mxPoint x="1400" y="670" as="targetPoint"/>
                    </mxGeometry>
                </mxCell>
                <mxCell id="rGAcFq7chmI2JZtGDuDB-64" value="" style="endArrow=classic;html=1;rounded=1;exitX=0.5;exitY=1;exitDx=0;exitDy=0;entryX=0.5;entryY=1;entryDx=0;entryDy=0;" parent="WIyWlLk6GJQsqaUBKTNV-1" source="rGAcFq7chmI2JZtGDuDB-61" target="rGAcFq7chmI2JZtGDuDB-60" edge="1">
                    <mxGeometry width="50" height="50" relative="1" as="geometry">
                        <mxPoint x="1380" y="780" as="sourcePoint"/>
                        <mxPoint x="1280" y="730" as="targetPoint"/>
                        <Array as="points">
                            <mxPoint x="1400" y="750"/>
                            <mxPoint x="1320" y="750"/>
                        </Array>
                    </mxGeometry>
                </mxCell>
                <mxCell id="F6FDtYqWP2EwDNqiijw_-13" style="edgeStyle=orthogonalEdgeStyle;rounded=1;orthogonalLoop=1;jettySize=auto;html=1;entryX=0;entryY=0.5;entryDx=0;entryDy=0;" parent="WIyWlLk6GJQsqaUBKTNV-1" source="F6FDtYqWP2EwDNqiijw_-0" target="F6FDtYqWP2EwDNqiijw_-12" edge="1">
                    <mxGeometry relative="1" as="geometry">
                        <mxPoint x="350" y="-789" as="sourcePoint"/>
                        <Array as="points">
                            <mxPoint x="480" y="-869"/>
                            <mxPoint x="480" y="-869"/>
                        </Array>
                    </mxGeometry>
                </mxCell>
                <mxCell id="aEGkrqKBKEE6HLABcekG-31" style="edgeStyle=orthogonalEdgeStyle;rounded=1;orthogonalLoop=1;jettySize=auto;html=1;" parent="WIyWlLk6GJQsqaUBKTNV-1" source="F6FDtYqWP2EwDNqiijw_-0" target="F6FDtYqWP2EwDNqiijw_-33" edge="1">
                    <mxGeometry relative="1" as="geometry"/>
                </mxCell>
                <mxCell id="aEGkrqKBKEE6HLABcekG-90" style="edgeStyle=orthogonalEdgeStyle;rounded=1;orthogonalLoop=1;jettySize=auto;html=1;" parent="WIyWlLk6GJQsqaUBKTNV-1" source="F6FDtYqWP2EwDNqiijw_-0" target="aEGkrqKBKEE6HLABcekG-88" edge="1">
                    <mxGeometry relative="1" as="geometry">
                        <Array as="points">
                            <mxPoint x="850" y="-869"/>
                            <mxPoint x="850" y="-769"/>
                            <mxPoint x="980" y="-769"/>
                        </Array>
                    </mxGeometry>
                </mxCell>
                <mxCell id="F6FDtYqWP2EwDNqiijw_-0" value="transportation route&lt;br&gt;- material&lt;br&gt;-width" style="shape=parallelogram;perimeter=parallelogramPerimeter;whiteSpace=wrap;html=1;fixedSize=1;spacing=1;spacingLeft=15;spacingRight=15;fontSize=11;fillColor=#f5f5f5;strokeColor=#666666;fontColor=#333333;rounded=1;" parent="WIyWlLk6GJQsqaUBKTNV-1" vertex="1">
                    <mxGeometry x="220" y="-899" width="120" height="60" as="geometry"/>
                </mxCell>
                <mxCell id="aEGkrqKBKEE6HLABcekG-4" style="edgeStyle=orthogonalEdgeStyle;rounded=1;orthogonalLoop=1;jettySize=auto;html=1;" parent="WIyWlLk6GJQsqaUBKTNV-1" source="F6FDtYqWP2EwDNqiijw_-1" target="aEGkrqKBKEE6HLABcekG-3" edge="1">
                    <mxGeometry relative="1" as="geometry">
                        <Array as="points">
                            <mxPoint x="830" y="-1319"/>
                            <mxPoint x="830" y="-1279"/>
                        </Array>
                    </mxGeometry>
                </mxCell>
                <mxCell id="F6FDtYqWP2EwDNqiijw_-1" value="temperature" style="shape=parallelogram;perimeter=parallelogramPerimeter;whiteSpace=wrap;html=1;fixedSize=1;spacing=1;spacingLeft=15;spacingRight=15;fontSize=11;fillColor=#f5f5f5;strokeColor=#666666;fontColor=#333333;rounded=1;" parent="WIyWlLk6GJQsqaUBKTNV-1" vertex="1">
                    <mxGeometry x="370" y="-1350" width="120" height="60" as="geometry"/>
                </mxCell>
                <mxCell id="F6FDtYqWP2EwDNqiijw_-44" style="edgeStyle=orthogonalEdgeStyle;rounded=1;orthogonalLoop=1;jettySize=auto;html=1;" parent="WIyWlLk6GJQsqaUBKTNV-1" source="F6FDtYqWP2EwDNqiijw_-2" target="F6FDtYqWP2EwDNqiijw_-43" edge="1">
                    <mxGeometry relative="1" as="geometry">
                        <Array as="points">
                            <mxPoint x="730" y="-479"/>
                            <mxPoint x="730" y="-429"/>
                        </Array>
                    </mxGeometry>
                </mxCell>
                <mxCell id="F6FDtYqWP2EwDNqiijw_-47" style="edgeStyle=orthogonalEdgeStyle;rounded=1;orthogonalLoop=1;jettySize=auto;html=1;entryX=0;entryY=0.5;entryDx=0;entryDy=0;" parent="WIyWlLk6GJQsqaUBKTNV-1" source="F6FDtYqWP2EwDNqiijw_-2" target="F6FDtYqWP2EwDNqiijw_-46" edge="1">
                    <mxGeometry relative="1" as="geometry">
                        <Array as="points">
                            <mxPoint x="730" y="-479"/>
                            <mxPoint x="730" y="-519"/>
                        </Array>
                    </mxGeometry>
                </mxCell>
                <mxCell id="F6FDtYqWP2EwDNqiijw_-2" value="&lt;div style=&quot;font-size: 11px;&quot;&gt;Population&lt;/div&gt;&lt;div style=&quot;font-size: 11px;&quot;&gt;&amp;nbsp;-Size&lt;/div&gt;&lt;div style=&quot;font-size: 11px;&quot;&gt;-Density&lt;/div&gt;&lt;div style=&quot;font-size: 11px;&quot;&gt;-Age group&lt;/div&gt;" style="shape=parallelogram;perimeter=parallelogramPerimeter;whiteSpace=wrap;html=1;fixedSize=1;spacing=1;spacingLeft=15;spacingRight=15;fontSize=11;fillColor=#f5f5f5;strokeColor=#666666;fontColor=#333333;rounded=1;" parent="WIyWlLk6GJQsqaUBKTNV-1" vertex="1">
                    <mxGeometry x="370" y="-509" width="120" height="60" as="geometry"/>
                </mxCell>
                <mxCell id="F6FDtYqWP2EwDNqiijw_-26" style="edgeStyle=orthogonalEdgeStyle;rounded=1;orthogonalLoop=1;jettySize=auto;html=1;" parent="WIyWlLk6GJQsqaUBKTNV-1" source="F6FDtYqWP2EwDNqiijw_-11" target="F6FDtYqWP2EwDNqiijw_-25" edge="1">
                    <mxGeometry relative="1" as="geometry"/>
                </mxCell>
                <mxCell id="aEGkrqKBKEE6HLABcekG-99" style="edgeStyle=orthogonalEdgeStyle;rounded=1;orthogonalLoop=1;jettySize=auto;html=1;" parent="WIyWlLk6GJQsqaUBKTNV-1" source="F6FDtYqWP2EwDNqiijw_-11" target="aEGkrqKBKEE6HLABcekG-91" edge="1">
                    <mxGeometry relative="1" as="geometry">
                        <Array as="points">
                            <mxPoint x="1110" y="-789"/>
                            <mxPoint x="1247" y="-789"/>
                        </Array>
                    </mxGeometry>
                </mxCell>
                <mxCell id="F6FDtYqWP2EwDNqiijw_-11" value="possible transportation method" style="shape=parallelogram;perimeter=parallelogramPerimeter;whiteSpace=wrap;html=1;fixedSize=1;spacing=1;spacingLeft=15;spacingRight=15;fontSize=11;rounded=1;" parent="WIyWlLk6GJQsqaUBKTNV-1" vertex="1">
                    <mxGeometry x="1050" y="-899" width="120" height="60" as="geometry"/>
                </mxCell>
                <mxCell id="F6FDtYqWP2EwDNqiijw_-14" style="edgeStyle=orthogonalEdgeStyle;rounded=1;orthogonalLoop=1;jettySize=auto;html=1;" parent="WIyWlLk6GJQsqaUBKTNV-1" source="F6FDtYqWP2EwDNqiijw_-12" target="F6FDtYqWP2EwDNqiijw_-11" edge="1">
                    <mxGeometry relative="1" as="geometry"/>
                </mxCell>
                <mxCell id="F6FDtYqWP2EwDNqiijw_-12" value="analysis of road properties&amp;nbsp;" style="rounded=1;whiteSpace=wrap;html=1;spacing=1;spacingLeft=15;spacingRight=15;fontSize=11;" parent="WIyWlLk6GJQsqaUBKTNV-1" vertex="1">
                    <mxGeometry x="910" y="-899" width="120" height="60" as="geometry"/>
                </mxCell>
                <mxCell id="aEGkrqKBKEE6HLABcekG-33" style="edgeStyle=orthogonalEdgeStyle;rounded=1;orthogonalLoop=1;jettySize=auto;html=1;entryX=0;entryY=0.5;entryDx=0;entryDy=0;" parent="WIyWlLk6GJQsqaUBKTNV-1" source="F6FDtYqWP2EwDNqiijw_-25" target="aEGkrqKBKEE6HLABcekG-16" edge="1">
                    <mxGeometry relative="1" as="geometry">
                        <Array as="points">
                            <mxPoint x="1430" y="-869"/>
                            <mxPoint x="1430" y="-869"/>
                        </Array>
                    </mxGeometry>
                </mxCell>
                <mxCell id="F6FDtYqWP2EwDNqiijw_-25" value="size and weight limitations for the shelter packaging" style="shape=parallelogram;perimeter=parallelogramPerimeter;whiteSpace=wrap;html=1;fixedSize=1;spacing=1;spacingLeft=15;spacingRight=15;fontSize=11;rounded=1;" parent="WIyWlLk6GJQsqaUBKTNV-1" vertex="1">
                    <mxGeometry x="1180" y="-899" width="120" height="60" as="geometry"/>
                </mxCell>
                <mxCell id="aEGkrqKBKEE6HLABcekG-18" style="edgeStyle=orthogonalEdgeStyle;rounded=1;orthogonalLoop=1;jettySize=auto;html=1;entryX=0;entryY=0.5;entryDx=0;entryDy=0;" parent="WIyWlLk6GJQsqaUBKTNV-1" source="F6FDtYqWP2EwDNqiijw_-28" target="aEGkrqKBKEE6HLABcekG-16" edge="1">
                    <mxGeometry relative="1" as="geometry">
                        <Array as="points">
                            <mxPoint x="1480" y="-519"/>
                            <mxPoint x="1480" y="-869"/>
                            <mxPoint x="1525" y="-869"/>
                        </Array>
                    </mxGeometry>
                </mxCell>
                <mxCell id="aEGkrqKBKEE6HLABcekG-62" style="edgeStyle=orthogonalEdgeStyle;rounded=1;orthogonalLoop=1;jettySize=auto;html=1;" parent="WIyWlLk6GJQsqaUBKTNV-1" source="F6FDtYqWP2EwDNqiijw_-28" target="aEGkrqKBKEE6HLABcekG-59" edge="1">
                    <mxGeometry relative="1" as="geometry">
                        <Array as="points">
                            <mxPoint x="1580" y="-519"/>
                        </Array>
                    </mxGeometry>
                </mxCell>
                <mxCell id="F6FDtYqWP2EwDNqiijw_-28" value="maximum shelter floor size" style="shape=parallelogram;perimeter=parallelogramPerimeter;whiteSpace=wrap;html=1;fixedSize=1;spacing=1;spacingLeft=15;spacingRight=15;fontSize=11;rounded=1;" parent="WIyWlLk6GJQsqaUBKTNV-1" vertex="1">
                    <mxGeometry x="1180" y="-549" width="120" height="60" as="geometry"/>
                </mxCell>
                <mxCell id="aEGkrqKBKEE6HLABcekG-29" style="edgeStyle=orthogonalEdgeStyle;rounded=1;orthogonalLoop=1;jettySize=auto;html=1;entryX=0;entryY=0.5;entryDx=0;entryDy=0;exitX=1;exitY=0.5;exitDx=0;exitDy=0;" parent="WIyWlLk6GJQsqaUBKTNV-1" source="F6FDtYqWP2EwDNqiijw_-29" target="aEGkrqKBKEE6HLABcekG-59" edge="1">
                    <mxGeometry relative="1" as="geometry">
                        <Array as="points">
                            <mxPoint x="1490" y="-439"/>
                            <mxPoint x="1490" y="-519"/>
                        </Array>
                    </mxGeometry>
                </mxCell>
                <mxCell id="F6FDtYqWP2EwDNqiijw_-29" value="Possible workers in the building phase of the shelter" style="shape=parallelogram;perimeter=parallelogramPerimeter;whiteSpace=wrap;html=1;fixedSize=1;spacing=1;spacingLeft=15;spacingRight=15;fontSize=11;rounded=1;" parent="WIyWlLk6GJQsqaUBKTNV-1" vertex="1">
                    <mxGeometry x="1180" y="-469" width="120" height="60" as="geometry"/>
                </mxCell>
                <mxCell id="F6FDtYqWP2EwDNqiijw_-36" style="edgeStyle=orthogonalEdgeStyle;rounded=1;orthogonalLoop=1;jettySize=auto;html=1;fillColor=#f5f5f5;strokeColor=#666666;" parent="WIyWlLk6GJQsqaUBKTNV-1" source="F6FDtYqWP2EwDNqiijw_-30" target="F6FDtYqWP2EwDNqiijw_-33" edge="1">
                    <mxGeometry relative="1" as="geometry">
                        <Array as="points">
                            <mxPoint x="530" y="-619"/>
                            <mxPoint x="530" y="-669"/>
                        </Array>
                    </mxGeometry>
                </mxCell>
                <mxCell id="F6FDtYqWP2EwDNqiijw_-30" value="available pieces of land for shelters" style="shape=parallelogram;perimeter=parallelogramPerimeter;whiteSpace=wrap;html=1;fixedSize=1;spacing=1;spacingLeft=15;spacingRight=15;fontSize=11;fillColor=#f5f5f5;strokeColor=#666666;fontColor=#333333;rounded=1;" parent="WIyWlLk6GJQsqaUBKTNV-1" vertex="1">
                    <mxGeometry x="370" y="-639" width="120" height="60" as="geometry"/>
                </mxCell>
                <mxCell id="F6FDtYqWP2EwDNqiijw_-34" style="edgeStyle=orthogonalEdgeStyle;rounded=1;orthogonalLoop=1;jettySize=auto;html=1;" parent="WIyWlLk6GJQsqaUBKTNV-1" source="F6FDtYqWP2EwDNqiijw_-31" target="F6FDtYqWP2EwDNqiijw_-33" edge="1">
                    <mxGeometry relative="1" as="geometry">
                        <Array as="points">
                            <mxPoint x="530" y="-709"/>
                            <mxPoint x="530" y="-669"/>
                        </Array>
                    </mxGeometry>
                </mxCell>
                <mxCell id="F6FDtYqWP2EwDNqiijw_-31" value="location X (coordinate system)&amp;nbsp;" style="shape=parallelogram;perimeter=parallelogramPerimeter;whiteSpace=wrap;html=1;fixedSize=1;spacingLeft=15;spacingRight=15;fillColor=#f8cecc;strokeColor=#b85450;rounded=1;" parent="WIyWlLk6GJQsqaUBKTNV-1" vertex="1">
                    <mxGeometry x="60" y="-719" width="120" height="60" as="geometry"/>
                </mxCell>
                <mxCell id="aEGkrqKBKEE6HLABcekG-102" style="edgeStyle=orthogonalEdgeStyle;rounded=1;orthogonalLoop=1;jettySize=auto;html=1;" parent="WIyWlLk6GJQsqaUBKTNV-1" source="F6FDtYqWP2EwDNqiijw_-33" target="F6FDtYqWP2EwDNqiijw_-41" edge="1">
                    <mxGeometry relative="1" as="geometry"/>
                </mxCell>
                <mxCell id="F6FDtYqWP2EwDNqiijw_-33" value="shortest route&amp;nbsp; from location X to the closest available piece of land&amp;nbsp;" style="rounded=1;whiteSpace=wrap;html=1;" parent="WIyWlLk6GJQsqaUBKTNV-1" vertex="1">
                    <mxGeometry x="580" y="-699" width="120" height="60" as="geometry"/>
                </mxCell>
                <mxCell id="F6FDtYqWP2EwDNqiijw_-49" style="edgeStyle=orthogonalEdgeStyle;rounded=1;orthogonalLoop=1;jettySize=auto;html=1;" parent="WIyWlLk6GJQsqaUBKTNV-1" source="F6FDtYqWP2EwDNqiijw_-41" target="F6FDtYqWP2EwDNqiijw_-46" edge="1">
                    <mxGeometry relative="1" as="geometry">
                        <Array as="points">
                            <mxPoint x="810" y="-599"/>
                            <mxPoint x="977" y="-599"/>
                        </Array>
                    </mxGeometry>
                </mxCell>
                <mxCell id="aEGkrqKBKEE6HLABcekG-89" style="edgeStyle=orthogonalEdgeStyle;rounded=1;orthogonalLoop=1;jettySize=auto;html=1;" parent="WIyWlLk6GJQsqaUBKTNV-1" source="F6FDtYqWP2EwDNqiijw_-41" target="aEGkrqKBKEE6HLABcekG-88" edge="1">
                    <mxGeometry relative="1" as="geometry"/>
                </mxCell>
                <mxCell id="F6FDtYqWP2EwDNqiijw_-41" value="specific shelter plot" style="shape=parallelogram;perimeter=parallelogramPerimeter;whiteSpace=wrap;html=1;fixedSize=1;spacingLeft=15;spacingRight=15;rounded=1;" parent="WIyWlLk6GJQsqaUBKTNV-1" vertex="1">
                    <mxGeometry x="750" y="-699" width="120" height="60" as="geometry"/>
                </mxCell>
                <mxCell id="F6FDtYqWP2EwDNqiijw_-45" style="edgeStyle=orthogonalEdgeStyle;rounded=1;orthogonalLoop=1;jettySize=auto;html=1;entryX=0;entryY=0.5;entryDx=0;entryDy=0;" parent="WIyWlLk6GJQsqaUBKTNV-1" source="F6FDtYqWP2EwDNqiijw_-43" target="F6FDtYqWP2EwDNqiijw_-29" edge="1">
                    <mxGeometry relative="1" as="geometry"/>
                </mxCell>
                <mxCell id="F6FDtYqWP2EwDNqiijw_-43" value="age &amp;gt; 18 and&lt;br&gt;age &amp;lt; 60" style="rounded=1;whiteSpace=wrap;html=1;" parent="WIyWlLk6GJQsqaUBKTNV-1" vertex="1">
                    <mxGeometry x="917" y="-469" width="120" height="60" as="geometry"/>
                </mxCell>
                <mxCell id="F6FDtYqWP2EwDNqiijw_-50" style="edgeStyle=orthogonalEdgeStyle;rounded=1;orthogonalLoop=1;jettySize=auto;html=1;" parent="WIyWlLk6GJQsqaUBKTNV-1" source="F6FDtYqWP2EwDNqiijw_-46" target="F6FDtYqWP2EwDNqiijw_-28" edge="1">
                    <mxGeometry relative="1" as="geometry"/>
                </mxCell>
                <mxCell id="F6FDtYqWP2EwDNqiijw_-46" value="available land per person" style="rounded=1;whiteSpace=wrap;html=1;" parent="WIyWlLk6GJQsqaUBKTNV-1" vertex="1">
                    <mxGeometry x="917" y="-549" width="120" height="60" as="geometry"/>
                </mxCell>
                <mxCell id="F6FDtYqWP2EwDNqiijw_-53" style="edgeStyle=orthogonalEdgeStyle;rounded=1;orthogonalLoop=1;jettySize=auto;html=1;" parent="WIyWlLk6GJQsqaUBKTNV-1" source="F6FDtYqWP2EwDNqiijw_-51" target="F6FDtYqWP2EwDNqiijw_-52" edge="1">
                    <mxGeometry relative="1" as="geometry">
                        <mxPoint x="578" y="-1149" as="sourcePoint"/>
                        <mxPoint x="1015" y="-1209" as="targetPoint"/>
                        <Array as="points">
                            <mxPoint x="830" y="-1229"/>
                            <mxPoint x="830" y="-1179"/>
                        </Array>
                    </mxGeometry>
                </mxCell>
                <mxCell id="aEGkrqKBKEE6HLABcekG-23" style="edgeStyle=orthogonalEdgeStyle;rounded=1;orthogonalLoop=1;jettySize=auto;html=1;entryX=0;entryY=0.5;entryDx=0;entryDy=0;" parent="WIyWlLk6GJQsqaUBKTNV-1" source="F6FDtYqWP2EwDNqiijw_-51" target="aEGkrqKBKEE6HLABcekG-3" edge="1">
                    <mxGeometry relative="1" as="geometry">
                        <Array as="points">
                            <mxPoint x="830" y="-1229"/>
                            <mxPoint x="830" y="-1279"/>
                        </Array>
                    </mxGeometry>
                </mxCell>
                <mxCell id="F6FDtYqWP2EwDNqiijw_-51" value="Wind:&amp;nbsp;&lt;br&gt;- load&lt;br&gt;- direction" style="shape=parallelogram;perimeter=parallelogramPerimeter;whiteSpace=wrap;html=1;fixedSize=1;fillColor=#f5f5f5;strokeColor=#666666;fontColor=#333333;rounded=1;" parent="WIyWlLk6GJQsqaUBKTNV-1" vertex="1">
                    <mxGeometry x="370" y="-1260" width="120" height="60" as="geometry"/>
                </mxCell>
                <mxCell id="F6FDtYqWP2EwDNqiijw_-57" style="edgeStyle=orthogonalEdgeStyle;rounded=1;orthogonalLoop=1;jettySize=auto;html=1;entryX=0;entryY=0.5;entryDx=0;entryDy=0;" parent="WIyWlLk6GJQsqaUBKTNV-1" source="F6FDtYqWP2EwDNqiijw_-52" target="F6FDtYqWP2EwDNqiijw_-55" edge="1">
                    <mxGeometry relative="1" as="geometry"/>
                </mxCell>
                <mxCell id="F6FDtYqWP2EwDNqiijw_-52" value="calculation of load-bearing capacity needed on the foundation" style="rounded=1;whiteSpace=wrap;html=1;" parent="WIyWlLk6GJQsqaUBKTNV-1" vertex="1">
                    <mxGeometry x="910" y="-1209" width="120" height="60" as="geometry"/>
                </mxCell>
                <mxCell id="aEGkrqKBKEE6HLABcekG-98" style="edgeStyle=orthogonalEdgeStyle;rounded=1;orthogonalLoop=1;jettySize=auto;html=1;" parent="WIyWlLk6GJQsqaUBKTNV-1" source="F6FDtYqWP2EwDNqiijw_-55" target="rGAcFq7chmI2JZtGDuDB-5" edge="1">
                    <mxGeometry relative="1" as="geometry"/>
                </mxCell>
                <mxCell id="F6FDtYqWP2EwDNqiijw_-55" value="requirements of structural properties&amp;nbsp;" style="shape=parallelogram;perimeter=parallelogramPerimeter;whiteSpace=wrap;html=1;fixedSize=1;spacing=1;spacingLeft=15;spacingRight=15;fontSize=11;rounded=1;" parent="WIyWlLk6GJQsqaUBKTNV-1" vertex="1">
                    <mxGeometry x="1360" y="-1209" width="120" height="60" as="geometry"/>
                </mxCell>
                <mxCell id="F6FDtYqWP2EwDNqiijw_-59" style="edgeStyle=orthogonalEdgeStyle;rounded=1;orthogonalLoop=1;jettySize=auto;html=1;fillColor=#f5f5f5;strokeColor=#000000;" parent="WIyWlLk6GJQsqaUBKTNV-1" source="F6FDtYqWP2EwDNqiijw_-58" target="F6FDtYqWP2EwDNqiijw_-51" edge="1">
                    <mxGeometry relative="1" as="geometry"/>
                </mxCell>
                <mxCell id="F6FDtYqWP2EwDNqiijw_-58" value="global wind atlas" style="shape=parallelogram;perimeter=parallelogramPerimeter;whiteSpace=wrap;html=1;fixedSize=1;spacing=1;spacingLeft=15;spacingRight=15;fontSize=11;fillColor=#f5f5f5;strokeColor=#666666;fontColor=#333333;rounded=1;" parent="WIyWlLk6GJQsqaUBKTNV-1" vertex="1">
                    <mxGeometry x="220" y="-1260" width="120" height="60" as="geometry"/>
                </mxCell>
                <mxCell id="F6FDtYqWP2EwDNqiijw_-61" style="edgeStyle=orthogonalEdgeStyle;rounded=1;orthogonalLoop=1;jettySize=auto;html=1;fillColor=#f5f5f5;strokeColor=#000000;" parent="WIyWlLk6GJQsqaUBKTNV-1" source="F6FDtYqWP2EwDNqiijw_-60" target="F6FDtYqWP2EwDNqiijw_-2" edge="1">
                    <mxGeometry relative="1" as="geometry"/>
                </mxCell>
                <mxCell id="F6FDtYqWP2EwDNqiijw_-60" value="Worldpop.org" style="shape=parallelogram;perimeter=parallelogramPerimeter;whiteSpace=wrap;html=1;fixedSize=1;spacing=1;spacingLeft=15;spacingRight=15;fontSize=11;fillColor=#f5f5f5;strokeColor=#666666;fontColor=#333333;rounded=1;" parent="WIyWlLk6GJQsqaUBKTNV-1" vertex="1">
                    <mxGeometry x="220" y="-509" width="120" height="60" as="geometry"/>
                </mxCell>
                <mxCell id="F6FDtYqWP2EwDNqiijw_-63" style="edgeStyle=orthogonalEdgeStyle;rounded=1;orthogonalLoop=1;jettySize=auto;html=1;entryX=0;entryY=0.5;entryDx=0;entryDy=0;fillColor=#f5f5f5;strokeColor=#000000;" parent="WIyWlLk6GJQsqaUBKTNV-1" source="aEGkrqKBKEE6HLABcekG-11" target="rGAcFq7chmI2JZtGDuDB-41" edge="1">
                    <mxGeometry relative="1" as="geometry"/>
                </mxCell>
                <mxCell id="F6FDtYqWP2EwDNqiijw_-62" value="USGS (geologic map/terrestrial ecosystems exporer)" style="shape=parallelogram;perimeter=parallelogramPerimeter;whiteSpace=wrap;html=1;fixedSize=1;spacing=1;spacingLeft=15;spacingRight=15;fontSize=11;fillColor=#f5f5f5;strokeColor=#666666;fontColor=#333333;rounded=1;" parent="WIyWlLk6GJQsqaUBKTNV-1" vertex="1">
                    <mxGeometry x="220" y="-1167" width="120" height="60" as="geometry"/>
                </mxCell>
                <mxCell id="F6FDtYqWP2EwDNqiijw_-65" style="edgeStyle=orthogonalEdgeStyle;rounded=1;orthogonalLoop=1;jettySize=auto;html=1;entryX=0;entryY=0.5;entryDx=0;entryDy=0;fillColor=#f5f5f5;strokeColor=#000000;" parent="WIyWlLk6GJQsqaUBKTNV-1" source="F6FDtYqWP2EwDNqiijw_-64" target="F6FDtYqWP2EwDNqiijw_-30" edge="1">
                    <mxGeometry relative="1" as="geometry"/>
                </mxCell>
                <mxCell id="F6FDtYqWP2EwDNqiijw_-64" value="TBD" style="shape=parallelogram;perimeter=parallelogramPerimeter;whiteSpace=wrap;html=1;fixedSize=1;spacing=1;spacingLeft=15;spacingRight=15;fontSize=11;fillColor=#f5f5f5;strokeColor=#666666;fontColor=#333333;rounded=1;" parent="WIyWlLk6GJQsqaUBKTNV-1" vertex="1">
                    <mxGeometry x="220" y="-639" width="120" height="60" as="geometry"/>
                </mxCell>
                <mxCell id="aEGkrqKBKEE6HLABcekG-1" style="edgeStyle=orthogonalEdgeStyle;rounded=1;orthogonalLoop=1;jettySize=auto;html=1;entryX=0;entryY=0.5;entryDx=0;entryDy=0;fillColor=#f5f5f5;strokeColor=#000000;" parent="WIyWlLk6GJQsqaUBKTNV-1" source="aEGkrqKBKEE6HLABcekG-0" target="F6FDtYqWP2EwDNqiijw_-1" edge="1">
                    <mxGeometry relative="1" as="geometry"/>
                </mxCell>
                <mxCell id="aEGkrqKBKEE6HLABcekG-0" value="GIS for climate" style="shape=parallelogram;perimeter=parallelogramPerimeter;whiteSpace=wrap;html=1;fixedSize=1;spacing=1;spacingLeft=15;spacingRight=15;fontSize=11;fillColor=#f5f5f5;strokeColor=#666666;fontColor=#333333;rounded=1;" parent="WIyWlLk6GJQsqaUBKTNV-1" vertex="1">
                    <mxGeometry x="220" y="-1350" width="120" height="60" as="geometry"/>
                </mxCell>
                <mxCell id="aEGkrqKBKEE6HLABcekG-8" style="edgeStyle=orthogonalEdgeStyle;rounded=1;orthogonalLoop=1;jettySize=auto;html=1;" parent="WIyWlLk6GJQsqaUBKTNV-1" source="aEGkrqKBKEE6HLABcekG-3" target="aEGkrqKBKEE6HLABcekG-5" edge="1">
                    <mxGeometry relative="1" as="geometry"/>
                </mxCell>
                <mxCell id="aEGkrqKBKEE6HLABcekG-3" value="analysis of needed strength and isolation values of the shell" style="rounded=1;whiteSpace=wrap;html=1;" parent="WIyWlLk6GJQsqaUBKTNV-1" vertex="1">
                    <mxGeometry x="910" y="-1309" width="120" height="60" as="geometry"/>
                </mxCell>
                <mxCell id="aEGkrqKBKEE6HLABcekG-22" style="edgeStyle=orthogonalEdgeStyle;rounded=1;orthogonalLoop=1;jettySize=auto;html=1;entryX=0;entryY=0.5;entryDx=0;entryDy=0;" parent="WIyWlLk6GJQsqaUBKTNV-1" source="aEGkrqKBKEE6HLABcekG-5" target="rGAcFq7chmI2JZtGDuDB-5" edge="1">
                    <mxGeometry relative="1" as="geometry">
                        <Array as="points">
                            <mxPoint x="1500" y="-1279"/>
                            <mxPoint x="1500" y="-1229"/>
                        </Array>
                    </mxGeometry>
                </mxCell>
                <mxCell id="aEGkrqKBKEE6HLABcekG-5" value="requirements of climate resistant properties&amp;nbsp;" style="shape=parallelogram;perimeter=parallelogramPerimeter;whiteSpace=wrap;html=1;fixedSize=1;spacing=1;spacingLeft=15;spacingRight=15;fontSize=11;rounded=1;" parent="WIyWlLk6GJQsqaUBKTNV-1" vertex="1">
                    <mxGeometry x="1360" y="-1309" width="120" height="60" as="geometry"/>
                </mxCell>
                <mxCell id="aEGkrqKBKEE6HLABcekG-12" value="" style="edgeStyle=orthogonalEdgeStyle;rounded=1;orthogonalLoop=1;jettySize=auto;html=1;entryX=0;entryY=0.5;entryDx=0;entryDy=0;fillColor=#f5f5f5;strokeColor=#000000;" parent="WIyWlLk6GJQsqaUBKTNV-1" source="F6FDtYqWP2EwDNqiijw_-62" target="aEGkrqKBKEE6HLABcekG-11" edge="1">
                    <mxGeometry relative="1" as="geometry">
                        <mxPoint x="350" y="-1125" as="sourcePoint"/>
                        <mxPoint x="550" y="-1146" as="targetPoint"/>
                    </mxGeometry>
                </mxCell>
                <mxCell id="aEGkrqKBKEE6HLABcekG-83" style="edgeStyle=orthogonalEdgeStyle;rounded=1;orthogonalLoop=1;jettySize=auto;html=1;entryX=0;entryY=0.5;entryDx=0;entryDy=0;" parent="WIyWlLk6GJQsqaUBKTNV-1" source="aEGkrqKBKEE6HLABcekG-11" target="aEGkrqKBKEE6HLABcekG-46" edge="1">
                    <mxGeometry relative="1" as="geometry">
                        <Array as="points">
                            <mxPoint x="515" y="-1019"/>
                        </Array>
                    </mxGeometry>
                </mxCell>
                <mxCell id="aEGkrqKBKEE6HLABcekG-11" value="Landscape" style="shape=parallelogram;perimeter=parallelogramPerimeter;whiteSpace=wrap;html=1;fixedSize=1;fillColor=#f5f5f5;strokeColor=#666666;fontColor=#333333;rounded=1;" parent="WIyWlLk6GJQsqaUBKTNV-1" vertex="1">
                    <mxGeometry x="370" y="-1169" width="120" height="62" as="geometry"/>
                </mxCell>
                <mxCell id="aEGkrqKBKEE6HLABcekG-16" value="Shelter size limitations" style="shape=parallelogram;perimeter=parallelogramPerimeter;whiteSpace=wrap;html=1;fixedSize=1;spacing=1;spacingLeft=15;spacingRight=15;fontSize=11;rounded=1;" parent="WIyWlLk6GJQsqaUBKTNV-1" vertex="1">
                    <mxGeometry x="1515" y="-909" width="120" height="60" as="geometry"/>
                </mxCell>
                <mxCell id="aEGkrqKBKEE6HLABcekG-25" style="edgeStyle=orthogonalEdgeStyle;rounded=1;orthogonalLoop=1;jettySize=auto;html=1;entryX=0;entryY=0.5;entryDx=0;entryDy=0;fillColor=#f5f5f5;strokeColor=#080808;endArrow=none;endFill=0;" parent="WIyWlLk6GJQsqaUBKTNV-1" source="aEGkrqKBKEE6HLABcekG-20" target="aEGkrqKBKEE6HLABcekG-21" edge="1">
                    <mxGeometry relative="1" as="geometry"/>
                </mxCell>
                <mxCell id="aEGkrqKBKEE6HLABcekG-20" value="Shelter Database&amp;nbsp;" style="shape=parallelogram;perimeter=parallelogramPerimeter;whiteSpace=wrap;html=1;fixedSize=1;spacingLeft=15;spacingRight=15;fillColor=#E0E0E0;strokeColor=#666666;fontColor=#333333;rounded=1;" parent="WIyWlLk6GJQsqaUBKTNV-1" vertex="1">
                    <mxGeometry x="1520" y="-339" width="120" height="60" as="geometry"/>
                </mxCell>
                <mxCell id="aEGkrqKBKEE6HLABcekG-21" value="&lt;div style=&quot;&quot;&gt;&lt;ol&gt;&lt;li&gt;&lt;span style=&quot;background-color: initial;&quot;&gt;size&amp;nbsp;&lt;/span&gt;&lt;br&gt;&lt;/li&gt;&lt;li&gt;amount of inhabitants&lt;/li&gt;&lt;li&gt;shell type&lt;/li&gt;&lt;li style=&quot;border-color: var(--border-color);&quot;&gt;foundation type&lt;/li&gt;&lt;li&gt;size &amp;amp; weight of the materials&lt;/li&gt;&lt;li&gt;complexity/time of build&lt;/li&gt;&lt;li&gt;envisioned lifetime (years)&lt;/li&gt;&lt;/ol&gt;&lt;/div&gt;" style="rounded=1;whiteSpace=wrap;html=1;align=left;fillColor=#E0E0E0;strokeColor=#666666;fontColor=#333333;" parent="WIyWlLk6GJQsqaUBKTNV-1" vertex="1">
                    <mxGeometry x="1600" y="-259" width="240" height="110" as="geometry"/>
                </mxCell>
                <mxCell id="aEGkrqKBKEE6HLABcekG-26" value="result: &lt;br&gt;For this location, within the given timeframe: The following shelter is most suitable" style="strokeWidth=2;html=1;shape=mxgraph.flowchart.terminator;whiteSpace=wrap;spacingLeft=15;spacingRight=15;fillColor=#f8cecc;strokeColor=#b85450;rounded=1;" parent="WIyWlLk6GJQsqaUBKTNV-1" vertex="1">
                    <mxGeometry x="1790" y="-949" width="240" height="140" as="geometry"/>
                </mxCell>
                <mxCell id="aEGkrqKBKEE6HLABcekG-60" style="edgeStyle=orthogonalEdgeStyle;rounded=1;orthogonalLoop=1;jettySize=auto;html=1;" parent="WIyWlLk6GJQsqaUBKTNV-1" source="aEGkrqKBKEE6HLABcekG-27" target="aEGkrqKBKEE6HLABcekG-59" edge="1">
                    <mxGeometry relative="1" as="geometry">
                        <Array as="points">
                            <mxPoint x="1580" y="-369"/>
                        </Array>
                    </mxGeometry>
                </mxCell>
                <mxCell id="aEGkrqKBKEE6HLABcekG-27" value="Maximum Realisation time&amp;nbsp;" style="shape=parallelogram;perimeter=parallelogramPerimeter;whiteSpace=wrap;html=1;fixedSize=1;spacingLeft=15;spacingRight=15;fillColor=#f8cecc;strokeColor=#b85450;rounded=1;" parent="WIyWlLk6GJQsqaUBKTNV-1" vertex="1">
                    <mxGeometry x="60" y="-409" width="120" height="60" as="geometry"/>
                </mxCell>
                <mxCell id="aEGkrqKBKEE6HLABcekG-28" style="edgeStyle=orthogonalEdgeStyle;rounded=1;orthogonalLoop=1;jettySize=auto;html=1;entryX=0;entryY=0.5;entryDx=0;entryDy=0;entryPerimeter=0;" parent="WIyWlLk6GJQsqaUBKTNV-1" source="aEGkrqKBKEE6HLABcekG-16" target="aEGkrqKBKEE6HLABcekG-26" edge="1">
                    <mxGeometry relative="1" as="geometry">
                        <Array as="points">
                            <mxPoint x="1730" y="-879"/>
                            <mxPoint x="1730" y="-879"/>
                        </Array>
                    </mxGeometry>
                </mxCell>
                <mxCell id="aEGkrqKBKEE6HLABcekG-30" style="edgeStyle=orthogonalEdgeStyle;rounded=1;orthogonalLoop=1;jettySize=auto;html=1;entryX=0;entryY=0.5;entryDx=0;entryDy=0;entryPerimeter=0;" parent="WIyWlLk6GJQsqaUBKTNV-1" source="rGAcFq7chmI2JZtGDuDB-5" target="aEGkrqKBKEE6HLABcekG-26" edge="1">
                    <mxGeometry relative="1" as="geometry">
                        <Array as="points">
                            <mxPoint x="1670" y="-1229"/>
                            <mxPoint x="1670" y="-879"/>
                        </Array>
                    </mxGeometry>
                </mxCell>
                <mxCell id="aEGkrqKBKEE6HLABcekG-35" style="edgeStyle=orthogonalEdgeStyle;rounded=1;orthogonalLoop=1;jettySize=auto;html=1;entryX=0.5;entryY=1;entryDx=0;entryDy=0;entryPerimeter=0;" parent="WIyWlLk6GJQsqaUBKTNV-1" source="aEGkrqKBKEE6HLABcekG-20" target="aEGkrqKBKEE6HLABcekG-26" edge="1">
                    <mxGeometry relative="1" as="geometry">
                        <mxPoint x="1980" y="-489" as="targetPoint"/>
                        <Array as="points">
                            <mxPoint x="1910" y="-309"/>
                        </Array>
                    </mxGeometry>
                </mxCell>
                <mxCell id="aEGkrqKBKEE6HLABcekG-40" style="edgeStyle=orthogonalEdgeStyle;rounded=1;orthogonalLoop=1;jettySize=auto;html=1;entryX=0;entryY=0.5;entryDx=0;entryDy=0;" parent="WIyWlLk6GJQsqaUBKTNV-1" source="aEGkrqKBKEE6HLABcekG-36" target="aEGkrqKBKEE6HLABcekG-39" edge="1">
                    <mxGeometry relative="1" as="geometry">
                        <Array as="points">
                            <mxPoint x="2660" y="640"/>
                            <mxPoint x="2660" y="690"/>
                        </Array>
                    </mxGeometry>
                </mxCell>
                <mxCell id="aEGkrqKBKEE6HLABcekG-36" value="location X (coordinate system)&amp;nbsp;" style="shape=parallelogram;perimeter=parallelogramPerimeter;whiteSpace=wrap;html=1;fixedSize=1;spacingLeft=15;spacingRight=15;fillColor=#f8cecc;strokeColor=#b85450;rounded=1;" parent="WIyWlLk6GJQsqaUBKTNV-1" vertex="1">
                    <mxGeometry x="2500" y="610" width="120" height="60" as="geometry"/>
                </mxCell>
                <mxCell id="aEGkrqKBKEE6HLABcekG-41" style="edgeStyle=orthogonalEdgeStyle;rounded=1;orthogonalLoop=1;jettySize=auto;html=1;" parent="WIyWlLk6GJQsqaUBKTNV-1" source="aEGkrqKBKEE6HLABcekG-37" target="aEGkrqKBKEE6HLABcekG-39" edge="1">
                    <mxGeometry relative="1" as="geometry"/>
                </mxCell>
                <mxCell id="aEGkrqKBKEE6HLABcekG-37" value="Maximum Realisation time&amp;nbsp;" style="shape=parallelogram;perimeter=parallelogramPerimeter;whiteSpace=wrap;html=1;fixedSize=1;spacingLeft=15;spacingRight=15;fillColor=#f8cecc;strokeColor=#b85450;rounded=1;" parent="WIyWlLk6GJQsqaUBKTNV-1" vertex="1">
                    <mxGeometry x="2500" y="710" width="120" height="60" as="geometry"/>
                </mxCell>
                <mxCell id="aEGkrqKBKEE6HLABcekG-38" value="result: &lt;br&gt;For this location, within the given timeframe, the following shelter is most suitable" style="strokeWidth=2;html=1;shape=mxgraph.flowchart.terminator;whiteSpace=wrap;spacingLeft=15;spacingRight=15;fillColor=#f8cecc;strokeColor=#b85450;rounded=1;" parent="WIyWlLk6GJQsqaUBKTNV-1" vertex="1">
                    <mxGeometry x="2900" y="620" width="240" height="140" as="geometry"/>
                </mxCell>
                <mxCell id="aEGkrqKBKEE6HLABcekG-42" style="edgeStyle=orthogonalEdgeStyle;rounded=1;orthogonalLoop=1;jettySize=auto;html=1;" parent="WIyWlLk6GJQsqaUBKTNV-1" source="aEGkrqKBKEE6HLABcekG-39" target="aEGkrqKBKEE6HLABcekG-38" edge="1">
                    <mxGeometry relative="1" as="geometry"/>
                </mxCell>
                <mxCell id="aEGkrqKBKEE6HLABcekG-39" value="APPLICATION" style="rounded=1;whiteSpace=wrap;html=1;" parent="WIyWlLk6GJQsqaUBKTNV-1" vertex="1">
                    <mxGeometry x="2700" y="660" width="120" height="60" as="geometry"/>
                </mxCell>
                <mxCell id="aEGkrqKBKEE6HLABcekG-50" style="edgeStyle=orthogonalEdgeStyle;rounded=1;orthogonalLoop=1;jettySize=auto;html=1;" parent="WIyWlLk6GJQsqaUBKTNV-1" source="aEGkrqKBKEE6HLABcekG-45" target="F6FDtYqWP2EwDNqiijw_-25" edge="1">
                    <mxGeometry relative="1" as="geometry"/>
                </mxCell>
                <mxCell id="aEGkrqKBKEE6HLABcekG-45" value="possible options with minimal transportation for this location&amp;nbsp;" style="shape=parallelogram;perimeter=parallelogramPerimeter;whiteSpace=wrap;html=1;fixedSize=1;spacing=1;spacingLeft=15;spacingRight=15;fontSize=11;rounded=1;" parent="WIyWlLk6GJQsqaUBKTNV-1" vertex="1">
                    <mxGeometry x="1180" y="-1049" width="120" height="60" as="geometry"/>
                </mxCell>
                <mxCell id="aEGkrqKBKEE6HLABcekG-48" style="edgeStyle=orthogonalEdgeStyle;rounded=1;orthogonalLoop=1;jettySize=auto;html=1;" parent="WIyWlLk6GJQsqaUBKTNV-1" source="aEGkrqKBKEE6HLABcekG-46" target="aEGkrqKBKEE6HLABcekG-45" edge="1">
                    <mxGeometry relative="1" as="geometry"/>
                </mxCell>
                <mxCell id="aEGkrqKBKEE6HLABcekG-46" value="material availability on the location (wood, soil)" style="rounded=1;whiteSpace=wrap;html=1;spacing=1;spacingLeft=15;spacingRight=15;fontSize=11;" parent="WIyWlLk6GJQsqaUBKTNV-1" vertex="1">
                    <mxGeometry x="910" y="-1049" width="120" height="60" as="geometry"/>
                </mxCell>
                <mxCell id="aEGkrqKBKEE6HLABcekG-58" style="edgeStyle=orthogonalEdgeStyle;rounded=1;orthogonalLoop=1;jettySize=auto;html=1;entryX=0;entryY=0.5;entryDx=0;entryDy=0;" parent="WIyWlLk6GJQsqaUBKTNV-1" source="aEGkrqKBKEE6HLABcekG-56" target="rGAcFq7chmI2JZtGDuDB-4" edge="1">
                    <mxGeometry relative="1" as="geometry">
                        <Array as="points">
                            <mxPoint x="1015" y="1200"/>
                            <mxPoint x="1015" y="1200"/>
                        </Array>
                    </mxGeometry>
                </mxCell>
                <mxCell id="aEGkrqKBKEE6HLABcekG-56" value="Shelter plot (coordinate system):&amp;nbsp;&lt;br&gt;- size of the plot&lt;br&gt;-&amp;nbsp; amount of people lseeking shelter on this plot&amp;nbsp;" style="shape=parallelogram;perimeter=parallelogramPerimeter;whiteSpace=wrap;html=1;fixedSize=1;spacingLeft=15;spacingRight=15;align=left;rounded=1;" parent="WIyWlLk6GJQsqaUBKTNV-1" vertex="1">
                    <mxGeometry x="735" y="1140" width="220" height="90" as="geometry"/>
                </mxCell>
                <mxCell id="aEGkrqKBKEE6HLABcekG-59" value="process duration&amp;nbsp; estimation" style="shape=parallelogram;perimeter=parallelogramPerimeter;whiteSpace=wrap;html=1;fixedSize=1;spacing=1;spacingLeft=15;spacingRight=15;fontSize=11;rounded=1;" parent="WIyWlLk6GJQsqaUBKTNV-1" vertex="1">
                    <mxGeometry x="1520" y="-549" width="120" height="60" as="geometry"/>
                </mxCell>
                <mxCell id="aEGkrqKBKEE6HLABcekG-64" value="transportation route&lt;br&gt;- material&lt;br&gt;-width" style="shape=parallelogram;perimeter=parallelogramPerimeter;whiteSpace=wrap;html=1;fixedSize=1;spacing=1;spacingLeft=15;spacingRight=15;fontSize=11;fillColor=#f5f5f5;strokeColor=#666666;fontColor=#333333;rounded=1;" parent="WIyWlLk6GJQsqaUBKTNV-1" vertex="1">
                    <mxGeometry x="2760" y="1054" width="120" height="60" as="geometry"/>
                </mxCell>
                <mxCell id="aEGkrqKBKEE6HLABcekG-65" value="temperature" style="shape=parallelogram;perimeter=parallelogramPerimeter;whiteSpace=wrap;html=1;fixedSize=1;spacing=1;spacingLeft=15;spacingRight=15;fontSize=11;fillColor=#f5f5f5;strokeColor=#666666;fontColor=#333333;rounded=1;" parent="WIyWlLk6GJQsqaUBKTNV-1" vertex="1">
                    <mxGeometry x="2750" y="1454" width="120" height="60" as="geometry"/>
                </mxCell>
                <mxCell id="aEGkrqKBKEE6HLABcekG-66" value="&lt;div style=&quot;font-size: 11px;&quot;&gt;Population&lt;/div&gt;&lt;div style=&quot;font-size: 11px;&quot;&gt;&amp;nbsp;-Size&lt;/div&gt;&lt;div style=&quot;font-size: 11px;&quot;&gt;-Density&lt;/div&gt;&lt;div style=&quot;font-size: 11px;&quot;&gt;-Age group&lt;/div&gt;" style="shape=parallelogram;perimeter=parallelogramPerimeter;whiteSpace=wrap;html=1;fixedSize=1;spacing=1;spacingLeft=15;spacingRight=15;fontSize=11;fillColor=#f5f5f5;strokeColor=#666666;fontColor=#333333;rounded=1;" parent="WIyWlLk6GJQsqaUBKTNV-1" vertex="1">
                    <mxGeometry x="2750" y="1214" width="120" height="60" as="geometry"/>
                </mxCell>
                <mxCell id="aEGkrqKBKEE6HLABcekG-67" value="available pieces of land for shelters" style="shape=parallelogram;perimeter=parallelogramPerimeter;whiteSpace=wrap;html=1;fixedSize=1;spacing=1;spacingLeft=15;spacingRight=15;fontSize=11;fillColor=#f5f5f5;strokeColor=#666666;fontColor=#333333;rounded=1;" parent="WIyWlLk6GJQsqaUBKTNV-1" vertex="1">
                    <mxGeometry x="2760" y="1134" width="120" height="60" as="geometry"/>
                </mxCell>
                <mxCell id="aEGkrqKBKEE6HLABcekG-68" value="Wind:&amp;nbsp;&lt;br&gt;- load&lt;br&gt;- direction" style="shape=parallelogram;perimeter=parallelogramPerimeter;whiteSpace=wrap;html=1;fixedSize=1;fillColor=#f5f5f5;strokeColor=#666666;fontColor=#333333;rounded=1;" parent="WIyWlLk6GJQsqaUBKTNV-1" vertex="1">
                    <mxGeometry x="2750" y="1374" width="120" height="60" as="geometry"/>
                </mxCell>
                <mxCell id="aEGkrqKBKEE6HLABcekG-69" style="edgeStyle=orthogonalEdgeStyle;rounded=1;orthogonalLoop=1;jettySize=auto;html=1;fillColor=#f5f5f5;strokeColor=#000000;" parent="WIyWlLk6GJQsqaUBKTNV-1" source="aEGkrqKBKEE6HLABcekG-70" target="aEGkrqKBKEE6HLABcekG-68" edge="1">
                    <mxGeometry relative="1" as="geometry"/>
                </mxCell>
                <mxCell id="aEGkrqKBKEE6HLABcekG-70" value="global wind atlas" style="shape=parallelogram;perimeter=parallelogramPerimeter;whiteSpace=wrap;html=1;fixedSize=1;spacing=1;spacingLeft=15;spacingRight=15;fontSize=11;fillColor=#f5f5f5;strokeColor=#666666;fontColor=#333333;rounded=1;" parent="WIyWlLk6GJQsqaUBKTNV-1" vertex="1">
                    <mxGeometry x="2600" y="1374" width="120" height="60" as="geometry"/>
                </mxCell>
                <mxCell id="aEGkrqKBKEE6HLABcekG-71" style="edgeStyle=orthogonalEdgeStyle;rounded=1;orthogonalLoop=1;jettySize=auto;html=1;fillColor=#f5f5f5;strokeColor=#000000;" parent="WIyWlLk6GJQsqaUBKTNV-1" source="aEGkrqKBKEE6HLABcekG-72" target="aEGkrqKBKEE6HLABcekG-66" edge="1">
                    <mxGeometry relative="1" as="geometry"/>
                </mxCell>
                <mxCell id="aEGkrqKBKEE6HLABcekG-72" value="Worldpop.org" style="shape=parallelogram;perimeter=parallelogramPerimeter;whiteSpace=wrap;html=1;fixedSize=1;spacing=1;spacingLeft=15;spacingRight=15;fontSize=11;fillColor=#f5f5f5;strokeColor=#666666;fontColor=#333333;rounded=1;" parent="WIyWlLk6GJQsqaUBKTNV-1" vertex="1">
                    <mxGeometry x="2600" y="1214" width="120" height="60" as="geometry"/>
                </mxCell>
                <mxCell id="aEGkrqKBKEE6HLABcekG-73" value="USGS (geologic map/terrestrial ecosystems exporer)" style="shape=parallelogram;perimeter=parallelogramPerimeter;whiteSpace=wrap;html=1;fixedSize=1;spacing=1;spacingLeft=15;spacingRight=15;fontSize=11;fillColor=#f5f5f5;strokeColor=#666666;fontColor=#333333;rounded=1;" parent="WIyWlLk6GJQsqaUBKTNV-1" vertex="1">
                    <mxGeometry x="2600" y="1296" width="120" height="60" as="geometry"/>
                </mxCell>
                <mxCell id="aEGkrqKBKEE6HLABcekG-74" style="edgeStyle=orthogonalEdgeStyle;rounded=1;orthogonalLoop=1;jettySize=auto;html=1;entryX=0;entryY=0.5;entryDx=0;entryDy=0;fillColor=#f5f5f5;strokeColor=#000000;" parent="WIyWlLk6GJQsqaUBKTNV-1" source="aEGkrqKBKEE6HLABcekG-75" target="aEGkrqKBKEE6HLABcekG-67" edge="1">
                    <mxGeometry relative="1" as="geometry"/>
                </mxCell>
                <mxCell id="aEGkrqKBKEE6HLABcekG-75" value="TBD" style="shape=parallelogram;perimeter=parallelogramPerimeter;whiteSpace=wrap;html=1;fixedSize=1;spacing=1;spacingLeft=15;spacingRight=15;fontSize=11;fillColor=#f5f5f5;strokeColor=#666666;fontColor=#333333;rounded=1;" parent="WIyWlLk6GJQsqaUBKTNV-1" vertex="1">
                    <mxGeometry x="2600" y="1134" width="120" height="60" as="geometry"/>
                </mxCell>
                <mxCell id="aEGkrqKBKEE6HLABcekG-76" style="edgeStyle=orthogonalEdgeStyle;rounded=1;orthogonalLoop=1;jettySize=auto;html=1;entryX=0;entryY=0.5;entryDx=0;entryDy=0;fillColor=#f5f5f5;strokeColor=#000000;" parent="WIyWlLk6GJQsqaUBKTNV-1" source="aEGkrqKBKEE6HLABcekG-77" target="aEGkrqKBKEE6HLABcekG-65" edge="1">
                    <mxGeometry relative="1" as="geometry"/>
                </mxCell>
                <mxCell id="aEGkrqKBKEE6HLABcekG-77" value="GIS for climate" style="shape=parallelogram;perimeter=parallelogramPerimeter;whiteSpace=wrap;html=1;fixedSize=1;spacing=1;spacingLeft=15;spacingRight=15;fontSize=11;fillColor=#f5f5f5;strokeColor=#666666;fontColor=#333333;rounded=1;" parent="WIyWlLk6GJQsqaUBKTNV-1" vertex="1">
                    <mxGeometry x="2600" y="1454" width="120" height="60" as="geometry"/>
                </mxCell>
                <mxCell id="aEGkrqKBKEE6HLABcekG-78" value="" style="edgeStyle=orthogonalEdgeStyle;rounded=1;orthogonalLoop=1;jettySize=auto;html=1;entryX=0;entryY=0.5;entryDx=0;entryDy=0;fillColor=#f5f5f5;strokeColor=#000000;" parent="WIyWlLk6GJQsqaUBKTNV-1" source="aEGkrqKBKEE6HLABcekG-73" target="aEGkrqKBKEE6HLABcekG-79" edge="1">
                    <mxGeometry relative="1" as="geometry">
                        <mxPoint x="2730" y="1338" as="sourcePoint"/>
                        <mxPoint x="2930" y="1317" as="targetPoint"/>
                    </mxGeometry>
                </mxCell>
                <mxCell id="aEGkrqKBKEE6HLABcekG-79" value="Landscape" style="shape=parallelogram;perimeter=parallelogramPerimeter;whiteSpace=wrap;html=1;fixedSize=1;fillColor=#f5f5f5;strokeColor=#666666;fontColor=#333333;rounded=1;" parent="WIyWlLk6GJQsqaUBKTNV-1" vertex="1">
                    <mxGeometry x="2750" y="1294" width="120" height="62" as="geometry"/>
                </mxCell>
                <mxCell id="aEGkrqKBKEE6HLABcekG-80" style="edgeStyle=orthogonalEdgeStyle;rounded=1;orthogonalLoop=1;jettySize=auto;html=1;entryX=0;entryY=0.5;entryDx=0;entryDy=0;fillColor=#f5f5f5;strokeColor=#666666;" parent="WIyWlLk6GJQsqaUBKTNV-1" source="aEGkrqKBKEE6HLABcekG-81" target="aEGkrqKBKEE6HLABcekG-82" edge="1">
                    <mxGeometry relative="1" as="geometry"/>
                </mxCell>
                <mxCell id="aEGkrqKBKEE6HLABcekG-81" value="Shelter Database&amp;nbsp;" style="shape=parallelogram;perimeter=parallelogramPerimeter;whiteSpace=wrap;html=1;fixedSize=1;spacingLeft=15;spacingRight=15;fillColor=#E0E0E0;strokeColor=#666666;fontColor=#333333;rounded=1;" parent="WIyWlLk6GJQsqaUBKTNV-1" vertex="1">
                    <mxGeometry x="3060" y="1194" width="120" height="60" as="geometry"/>
                </mxCell>
                <mxCell id="aEGkrqKBKEE6HLABcekG-82" value="&lt;div style=&quot;&quot;&gt;&lt;ol&gt;&lt;li&gt;&lt;span style=&quot;background-color: initial;&quot;&gt;size&amp;nbsp;&lt;/span&gt;&lt;br&gt;&lt;/li&gt;&lt;li&gt;amount of inhabitants&lt;/li&gt;&lt;li&gt;shell type&lt;/li&gt;&lt;li style=&quot;border-color: var(--border-color);&quot;&gt;foundation type&lt;/li&gt;&lt;li&gt;size &amp;amp; weight of the materials&lt;/li&gt;&lt;li&gt;complexity/time of build&lt;/li&gt;&lt;li&gt;envisioned lifetime (years)&lt;/li&gt;&lt;/ol&gt;&lt;/div&gt;" style="rounded=1;whiteSpace=wrap;html=1;align=left;fillColor=#E0E0E0;strokeColor=#666666;fontColor=#333333;" parent="WIyWlLk6GJQsqaUBKTNV-1" vertex="1">
                    <mxGeometry x="3140" y="1274" width="240" height="110" as="geometry"/>
                </mxCell>
                <mxCell id="aEGkrqKBKEE6HLABcekG-101" style="edgeStyle=orthogonalEdgeStyle;rounded=1;orthogonalLoop=1;jettySize=auto;html=1;" parent="WIyWlLk6GJQsqaUBKTNV-1" source="aEGkrqKBKEE6HLABcekG-87" target="aEGkrqKBKEE6HLABcekG-59" edge="1">
                    <mxGeometry relative="1" as="geometry">
                        <Array as="points">
                            <mxPoint x="1580" y="-669"/>
                        </Array>
                    </mxGeometry>
                </mxCell>
                <mxCell id="aEGkrqKBKEE6HLABcekG-87" value="transportation timeframe (relative)" style="shape=parallelogram;perimeter=parallelogramPerimeter;whiteSpace=wrap;html=1;fixedSize=1;spacing=1;spacingLeft=15;spacingRight=15;fontSize=11;rounded=1;" parent="WIyWlLk6GJQsqaUBKTNV-1" vertex="1">
                    <mxGeometry x="1350" y="-699" width="120" height="60" as="geometry"/>
                </mxCell>
                <mxCell id="aEGkrqKBKEE6HLABcekG-92" style="edgeStyle=orthogonalEdgeStyle;rounded=1;orthogonalLoop=1;jettySize=auto;html=1;" parent="WIyWlLk6GJQsqaUBKTNV-1" source="aEGkrqKBKEE6HLABcekG-88" target="aEGkrqKBKEE6HLABcekG-91" edge="1">
                    <mxGeometry relative="1" as="geometry"/>
                </mxCell>
                <mxCell id="aEGkrqKBKEE6HLABcekG-88" value="shortest route from highway to specific shelter plot" style="rounded=1;whiteSpace=wrap;html=1;spacing=1;spacingLeft=15;spacingRight=15;fontSize=11;" parent="WIyWlLk6GJQsqaUBKTNV-1" vertex="1">
                    <mxGeometry x="924" y="-699" width="120" height="60" as="geometry"/>
                </mxCell>
                <mxCell id="aEGkrqKBKEE6HLABcekG-95" style="edgeStyle=orthogonalEdgeStyle;rounded=1;orthogonalLoop=1;jettySize=auto;html=1;" parent="WIyWlLk6GJQsqaUBKTNV-1" source="aEGkrqKBKEE6HLABcekG-91" target="aEGkrqKBKEE6HLABcekG-87" edge="1">
                    <mxGeometry relative="1" as="geometry"/>
                </mxCell>
                <mxCell id="aEGkrqKBKEE6HLABcekG-91" value="duration of the route from highway to specific shelter plot" style="rounded=1;whiteSpace=wrap;html=1;spacing=1;spacingLeft=15;spacingRight=15;fontSize=11;" parent="WIyWlLk6GJQsqaUBKTNV-1" vertex="1">
                    <mxGeometry x="1187" y="-699" width="120" height="60" as="geometry"/>
                </mxCell>
                <mxCell id="aEGkrqKBKEE6HLABcekG-104" style="edgeStyle=orthogonalEdgeStyle;rounded=1;orthogonalLoop=1;jettySize=auto;html=1;entryX=0;entryY=0.5;entryDx=0;entryDy=0;entryPerimeter=0;" parent="WIyWlLk6GJQsqaUBKTNV-1" source="aEGkrqKBKEE6HLABcekG-59" target="aEGkrqKBKEE6HLABcekG-26" edge="1">
                    <mxGeometry relative="1" as="geometry"/>
                </mxCell>
            </root>
        </mxGraphModel>
    </diagram>
</mxfile>